<?xml version="1.0" encoding="utf-8"?>
<!-- Generator: Adobe Illustrator 23.0.1, SVG Export Plug-In . SVG Version: 6.00 Build 0)  -->
<svg version="1.0" xmlns="http://www.w3.org/2000/svg" xmlns:xlink="http://www.w3.org/1999/xlink" x="0px" y="0px"
	 viewBox="0 0 552.38 222.93" style="enable-background:new 0 0 552.38 222.93;" xml:space="preserve">
<style type="text/css">
	.st0{fill:#008F37;}
	.st1{fill:#007CBD;}
	.st2{fill:#007BBC;}
	.st3{fill:#007BBB;}
	.st4{fill:#FFFFFF;}
</style>
<g id="Layer_5">
	<path class="st0" d="M150.64,116.99c-2.3-2.55-27.7,2-27.7,2s-92.97,17.87-92.97-9.83S130.65,52.38,170.61,45.2
		c39.96-7.18,8.38,6.92,8.38,6.92S152.65,65.1,129.91,76.3c-22.74,11.2-23.6,16.82,0.58,11.73c24.18-5.09,47.59-5.8,47.59-5.8
		c28.63-0.38,46.83,1.73,57.61,5.37V1.79H63.48c-26.24,0-47.52,21.28-47.52,47.52v144.75c32.31-17.57,117.41-63.85,125.09-68.07
		C150.54,120.77,152.93,119.54,150.64,116.99z"/>
	<path class="st1" d="M66.01,221.52h130.5c21.64,0,39.18-17.54,39.18-39.18v-62.83c-14.7,12.57-36.38,23.48-36.38,23.48
		L66.01,221.52z"/>
</g>
<g id="Layer_10">
	<polygon class="st2" points="88.84,185.5 137.99,155.41 125.22,155.41 68.23,185.5 	"/>
	<path class="st3" d="M192,119.43l17.13-11c0,0,13.79-7.5-27.84-6.63c0,0,31.46-4.25,35.07,2.13c0,0,3.61,2.75-6.16,8.38
		s-13.25,7.75-13.25,7.75L192,119.43z"/>
	<polygon class="st2" points="186.78,122.91 137.21,149.08 148.32,149.08 191.08,122.91 	"/>
	<polygon class="st2" points="51.92,194.11 0,221.52 29.99,221.52 74.76,194.11 	"/>
</g>
<g id="Layer_2">
	<polyline class="st4" points="436.12,1.79 462.99,1.79 462.99,51.78 509.23,1.79 550.48,1.79 482.99,71.16 546.1,140.52 
		506.11,140.52 464.24,95.53 464.24,140.52 436.12,140.52 436.12,4.91 	"/>
	<polygon class="st4" points="285.5,140.52 285.5,1.79 311.12,1.79 349.87,57.41 389.86,1.79 417.36,1.79 417.36,140.52 
		390.49,140.52 390.49,53.03 351.43,109.27 312.37,54.91 312.37,140.52 	"/>
</g>
<g id="Layer_3">
	<path class="st4" d="M329.84,178.27h-8.18c-1.12-6.54-5.68-10.84-14.63-10.84c-7.92,0-13.17,3.79-13.17,9.81
		c0,4.91,3.87,7.66,10.76,8.95l8.18,1.63c10.76,2.07,16.87,6.71,16.87,15.58c0,10.84-8.86,17.99-22.2,17.99
		c-14.2,0-23.58-7.49-24.79-20.14h8.18c1.29,8,7.23,12.82,17.04,12.82c8.26,0,13.34-3.79,13.34-9.64c0-4.04-2.67-7.4-9.81-8.69
		l-9.9-1.89c-11.02-2.07-16.35-7.66-16.35-16.01c0-10.41,8.52-17.47,21.34-17.47C317.62,160.37,328.37,165.36,329.84,178.27z"/>
	<path class="st4" d="M350.66,205.12l-6.54,15.06h-8.78l26.08-58.86h7.75l26.08,58.86h-8.78l-6.54-15.06H350.66z M365.29,171.21
		l-11.36,26.33h22.72L365.29,171.21z"/>
	<path class="st4" d="M444.81,220.18h-39.93v-58.52h8.18v51.12h31.76V220.18z"/>
	<path class="st4" d="M462.8,187.39h29.95v7.57H462.8v17.64h33.39v7.57h-41.57v-58.52h41.57v7.57H462.8V187.39z"/>
	<path class="st4" d="M551.44,178.27h-8.18c-1.12-6.54-5.68-10.84-14.63-10.84c-7.92,0-13.17,3.79-13.17,9.81
		c0,4.91,3.87,7.66,10.76,8.95l8.18,1.63c10.76,2.07,16.87,6.71,16.87,15.58c0,10.84-8.86,17.99-22.2,17.99
		c-14.2,0-23.58-7.49-24.79-20.14h8.18c1.29,8,7.23,12.82,17.04,12.82c8.26,0,13.34-3.79,13.34-9.64c0-4.04-2.67-7.4-9.81-8.69
		l-9.9-1.89c-11.02-2.07-16.35-7.66-16.35-16.01c0-10.41,8.52-17.47,21.34-17.47C539.22,160.37,549.98,165.36,551.44,178.27z"/>
</g>
</svg>
