<?xml version="1.0" encoding="utf-8"?>
<!-- Generator: Adobe Illustrator 23.0.1, SVG Export Plug-In . SVG Version: 6.00 Build 0)  -->
<svg version="1.0" xmlns="http://www.w3.org/2000/svg" xmlns:xlink="http://www.w3.org/1999/xlink" x="0px" y="0px"
	 viewBox="0 0 235.69 220.03" style="enable-background:new 0 0 235.69 220.03;" xml:space="preserve">
<style type="text/css">
	.st0{fill:#FFFFFF;}
</style>
<g id="Layer_5">
	<path class="st0" d="M150.64,115.34c-2.3-2.55-27.7,2-27.7,2s-92.97,17.87-92.97-9.83s100.68-56.79,140.64-63.96
		c39.96-7.18,8.38,6.92,8.38,6.92s-26.34,12.98-49.08,24.18c-22.74,11.2-23.6,16.82,0.58,11.73c24.18-5.09,47.59-5.8,47.59-5.8
		c28.63-0.38,46.83,1.73,57.61,5.37V0.14H63.48c-26.24,0-47.52,21.28-47.52,47.52v144.75c32.31-17.57,117.41-63.85,125.09-68.07
		C150.54,119.12,152.93,117.89,150.64,115.34z"/>
	<path class="st0" d="M66.01,219.87h130.5c21.64,0,39.18-17.54,39.18-39.18v-62.83c-14.7,12.57-36.38,23.48-36.38,23.48
		L66.01,219.87z"/>
</g>
<g id="Layer_10">
	<polygon class="st0" points="88.84,183.85 137.99,153.76 125.22,153.76 68.23,183.85 	"/>
	<path class="st0" d="M192,117.79l17.13-11c0,0,13.79-7.5-27.84-6.63c0,0,31.46-4.25,35.07,2.13c0,0,3.61,2.75-6.16,8.38
		c-9.77,5.63-13.25,7.75-13.25,7.75L192,117.79z"/>
	<polygon class="st0" points="186.78,121.26 137.21,147.43 148.32,147.43 191.08,121.26 	"/>
	<polygon class="st0" points="51.92,192.46 0,219.87 29.99,219.87 74.76,192.46 	"/>
</g>
<g id="Layer_2">
</g>
<g id="Layer_3">
</g>
</svg>
